<?xml version="1.0" encoding="UTF-8"?>
<svg id="Layer_2" data-name="Layer 2" xmlns="http://www.w3.org/2000/svg" viewBox="0 0 326.67 301.33">
  <defs>
    <style>
      .cls-1 {
        fill: #011638;
        stroke-width: 0px;
      }

      .cls-2 {
        fill: #2958ff;
      }

      .cls-2, .cls-3 {
        stroke: #011638;
        stroke-miterlimit: 10;
        stroke-width: .75px;
      }

      .cls-3 {
        fill: #fcfcfc;
      }
    </style>
  </defs>
  <g id="Layer_1-2" data-name="Layer 1">
    <rect class="cls-1" width="326.67" height="301.33" rx="57.33" ry="57.33"/>
    <g>
      <path class="cls-3" d="m239.04,202.17c2.35,6.88,4.22,12.93,6.49,18.7,1.07,2.73.67,3.97-1.07,5.73-10.98,11.09-23.34,18.31-36.89,21.67-38.77,9.62-75.57,3.35-109.07-25.22-17.5-14.92-30.27-35.16-35.66-62.03-8.16-40.65,5.45-78.05,34.75-96.49,21.09-13.27,43.56-16.83,66.58-15.36,25.73,1.64,50.22,9.56,72.53,27.04,6.11,4.79,11.6,10.58,15.91,18.1,2.44,4.27,4.22,8.94,4.92,14.21.57,4.26.11,8.3-1.87,11.9-1.63,2.96-3.01,3.86-5.51.67-7.19-9.18-15.81-15.24-25.74-17.83-2.23-.58-3.66-1.91-4.75-4.54-3.11-7.49-6.81-14.49-11.01-21.04-9.67-15.07-22.09-23.23-36.97-25.48-13.52-2.04-26.91-1.72-39.97,3.9-28.99,12.47-45.73,46.74-43.49,88.88,2.75,51.72,31.52,91.97,71.84,100.73,12.92,2.81,25.77,2.8,38.46-1.41,18.11-6,32.42-18.6,40.52-42.14Z"/>
      <path class="cls-2" d="m165.11,240.01c-10.73-1.85-20.29-5.78-29.41-11.68-1.8-1.16-2.65-3.05-3.24-5.33-3.26-12.45-1.67-23.9,4.26-34.39,5.57-9.86,13.12-16.56,21.28-22.2,9.99-6.91,20.61-11.63,31.57-15.13,1.05-.34,2.24-.25,3.25-1.85-11.54-4.77-23.34-5.95-35.47-6.83,1.55-5.01,3.77-8.85,6.2-12.49,25.56-38.33,77.3-31.15,95.74,13.37,5.26,12.71,7.4,26.83,10.07,40.68,2.46,12.8,4.47,25.75,7.61,38.32.69,2.75,1.41,5.49,2.25,8.16,3.03,9.57,4.46,11.69,10.65,16.21-.45,1.81-1.6,1.04-2.45,1.01-21.19-.77-34.71-15.01-42.16-44.09-3.65-14.27-5.64-29.1-8.97-43.47-1.28-5.53-2.63-11.07-4.35-16.38-8.26-25.47-23.77-35.69-44.43-29.3-10.67,3.3-19.37,10.62-25.76,22.34-.54.99-1.39,2.37-1.19,3.22.4,1.72,1.89.94,2.89.98,9.91.36,19.64,2.16,29.16,5.77,1.32.5,3.4.2,3.51,2.92.1,2.38-1.82,2.48-2.96,3.21-8.82,5.64-16.81,12.75-23.21,22.57-8.86,13.6-13.14,29.16-11.48,47.16.6,6.5,3.07,11.83,6.65,17.24Z"/>
    </g>
  </g>
</svg>