<?xml version="1.0" standalone="no"?>
<!DOCTYPE svg PUBLIC "-//W3C//DTD SVG 20010904//EN"
 "http://www.w3.org/TR/2001/REC-SVG-20010904/DTD/svg10.dtd">
<svg version="1.0" xmlns="http://www.w3.org/2000/svg"
 width="644.000000pt" height="567.000000pt" viewBox="0 0 644.000000 567.000000"
 preserveAspectRatio="xMidYMid meet">

<g transform="translate(0.000000,567.000000) scale(0.100000,-0.100000)"
fill="#000000" stroke="none">
<path d="M0 2835 l0 -2835 3220 0 3220 0 0 2835 0 2835 -3220 0 -3220 0 0
-2835z m3179 2594 c67 -15 151 -58 199 -103 45 -41 75 -89 184 -291 36 -66 79
-145 97 -175 17 -30 49 -89 72 -131 l40 -77 94 49 c346 182 824 309 1167 309
31 0 60 4 63 10 6 10 159 5 177 -6 7 -4 8 -3 4 4 -4 7 -3 12 3 12 5 0 12 -4
15 -9 3 -4 75 -11 161 -15 86 -4 170 -12 188 -18 65 -22 107 -80 107 -149 0
-23 -21 -150 -46 -283 -25 -133 -52 -275 -59 -316 -8 -41 -30 -158 -49 -260
-20 -102 -46 -243 -60 -315 -13 -71 -29 -149 -35 -171 -20 -74 -76 -124 -141
-124 -17 0 -30 -5 -31 -12 0 -10 -2 -10 -6 0 -4 10 -41 12 -156 11 -226 -2
-447 -31 -627 -81 -85 -24 -98 -32 -83 -50 6 -7 25 -40 43 -73 47 -86 621
-1088 630 -1100 4 -5 19 -31 33 -57 14 -25 60 -106 103 -180 70 -120 153 -265
206 -358 11 -19 37 -64 58 -100 88 -151 331 -580 364 -643 22 -41 36 -83 36
-104 0 -54 -36 -109 -87 -133 -40 -19 -62 -20 -325 -20 -420 0 -702 25 -991
89 -502 110 -904 305 -1235 599 -68 60 -256 266 -295 322 -9 14 -33 49 -53 78
-20 30 -38 65 -40 79 -1 13 -6 28 -10 31 -4 4 -4 -2 -1 -13 7 -20 7 -20 -8 -1
-8 11 -15 23 -15 27 0 16 133 226 200 316 l24 33 58 -119 c33 -66 70 -131 83
-145 12 -13 21 -26 19 -29 -9 -9 190 -239 267 -308 86 -77 209 -174 209 -165
0 3 11 -5 24 -17 32 -30 199 -123 321 -179 215 -100 509 -184 780 -223 187
-27 592 -54 583 -39 -17 27 -216 376 -309 539 -122 215 -95 193 -263 214 -331
43 -624 182 -843 398 -36 36 -59 51 -73 48 -11 -2 -20 0 -20 6 0 5 7 9 16 9
10 0 2 18 -29 58 -121 158 -200 354 -213 527 l-6 70 54 40 c29 23 94 67 143
99 50 33 110 72 134 88 43 28 43 29 38 6 -3 -13 -11 -57 -18 -98 -38 -250 87
-515 332 -700 90 -67 206 -130 228 -122 8 2 11 0 8 -5 -5 -8 117 -61 154 -66
8 -2 21 -7 28 -12 9 -5 6 4 -6 21 -11 16 -28 45 -37 64 -9 19 -25 51 -37 70
-11 19 -79 137 -151 262 -71 126 -133 228 -137 228 -4 0 -8 6 -8 13 0 21 -183
347 -194 347 -6 0 -8 4 -4 9 3 5 -2 16 -10 24 -8 9 -15 19 -15 22 0 17 -93
176 -99 168 -3 -4 -11 -9 -18 -10 -15 -3 -192 -105 -277 -161 -270 -175 -557
-448 -754 -713 -200 -272 -305 -473 -400 -769 -73 -230 -101 -403 -108 -670
-6 -243 -7 -252 -47 -291 -18 -18 -31 -36 -30 -41 2 -4 -460 -7 -1026 -5
-1027 2 -1030 2 -1058 23 -48 36 -73 82 -73 134 0 48 48 151 235 505 29 55 90
172 135 260 147 283 343 657 420 800 44 81 118 223 220 420 40 77 80 154 90
170 9 17 39 71 65 120 26 50 62 117 80 150 185 341 229 421 235 430 4 6 27 48
52 95 25 47 55 103 68 125 39 68 115 206 160 290 23 44 51 95 62 113 11 17 16
32 11 32 -4 0 -3 4 3 8 19 13 82 137 77 151 -3 8 -1 11 5 7 6 -3 45 59 93 147
45 83 91 168 102 187 192 344 209 375 200 384 -4 3 -2 6 4 6 6 0 39 52 74 116
76 140 127 200 208 243 90 47 180 61 270 40z"/>
<path d="M3067 5058 c-13 -18 -71 -116 -127 -218 -57 -102 -112 -201 -123
-220 -45 -81 -283 -522 -409 -760 -22 -41 -66 -122 -98 -180 -32 -58 -117
-215 -190 -350 -73 -135 -143 -263 -155 -285 -12 -22 -55 -103 -95 -180 -40
-77 -76 -144 -80 -150 -4 -5 -33 -59 -65 -120 -32 -60 -93 -175 -135 -255
-129 -243 -164 -308 -255 -485 -48 -93 -109 -210 -135 -260 -26 -49 -95 -182
-153 -295 -58 -113 -139 -270 -181 -350 -42 -79 -76 -146 -76 -147 0 -2 311
-3 690 -3 l690 0 0 88 c0 226 95 655 206 926 144 352 357 668 658 976 147 150
205 203 322 295 506 398 1116 616 1744 624 l95 1 39 223 c48 282 124 705 131
735 5 22 5 22 -110 22 -114 0 -354 -21 -470 -41 -161 -27 -402 -100 -579 -173
-93 -39 -282 -138 -350 -185 -23 -16 -49 -28 -58 -28 -19 0 -108 -65 -102 -74
2 -4 -24 -30 -59 -59 -92 -79 -227 -215 -292 -295 -204 -251 -339 -567 -369
-865 -5 -51 -10 -59 -61 -106 -30 -28 -55 -56 -55 -63 0 -6 -6 -11 -13 -11
-13 0 -158 -144 -219 -218 -15 -17 -29 -32 -31 -32 -11 0 3 386 17 483 44 298
127 537 270 781 129 219 307 418 579 646 7 7 -61 146 -146 295 -22 39 -64 117
-95 175 -63 121 -97 170 -117 170 -8 0 -25 -15 -38 -32z"/>
</g>
</svg>
