<?xml version="1.0" standalone="no"?>
<!DOCTYPE svg PUBLIC "-//W3C//DTD SVG 20010904//EN"
 "http://www.w3.org/TR/2001/REC-SVG-20010904/DTD/svg10.dtd">
<svg version="1.0" xmlns="http://www.w3.org/2000/svg"
 width="644.000000pt" height="567.000000pt" viewBox="0 0 644.000000 567.000000"
 preserveAspectRatio="xMidYMid meet">

<g transform="translate(0.000000,567.000000) scale(0.100000,-0.100000)"
fill="#000000" stroke="none">
<path d="M3012 5429 c-65 -12 -158 -67 -205 -119 -23 -26 -71 -100 -106 -164
-35 -64 -68 -116 -74 -116 -6 0 -7 -3 -4 -7 8 -7 -18 -57 -237 -453 -81 -146
-152 -264 -157 -262 -6 1 -9 -3 -6 -10 5 -14 -59 -138 -77 -150 -6 -4 -7 -8
-3 -8 5 0 0 -15 -11 -32 -11 -18 -39 -69 -62 -113 -44 -81 -119 -217 -160
-290 -13 -22 -38 -69 -58 -105 -19 -36 -72 -132 -117 -215 -93 -169 -416 -771
-459 -855 -39 -75 -131 -250 -176 -335 -97 -180 -569 -1086 -704 -1349 -72
-141 -86 -177 -86 -216 0 -52 26 -99 73 -134 28 -21 31 -21 1058 -23 566 -2
1028 1 1026 5 -1 5 12 23 30 41 40 39 41 48 47 291 7 283 40 471 127 727 27
79 63 173 80 210 18 38 33 70 34 73 1 5 15 32 68 130 102 191 368 526 542 685
43 39 94 85 114 103 66 60 254 199 351 259 123 76 230 135 230 125 0 -4 4 -1
9 6 6 10 26 -19 67 -94 33 -59 58 -111 56 -116 -1 -4 2 -8 7 -8 10 0 196 -328
196 -345 0 -5 5 -14 12 -20 13 -11 323 -552 323 -563 0 -4 12 -25 26 -46 15
-21 20 -35 13 -30 -8 5 -20 9 -28 11 -38 5 -159 58 -154 67 3 5 1 6 -5 2 -6
-4 -40 8 -74 25 -233 117 -405 313 -474 538 -22 74 -27 196 -11 286 8 44 13
81 12 83 -6 7 -229 -139 -313 -203 -47 -37 -51 -43 -52 -82 -1 -92 42 -246
102 -367 192 -389 585 -644 1093 -711 66 -8 122 -19 126 -23 3 -4 90 -153 191
-332 102 -179 196 -343 209 -364 l23 -39 -140 7 c-618 31 -1066 150 -1464 386
-47 28 -90 57 -96 65 -6 8 -13 13 -16 10 -6 -7 -169 125 -246 199 -64 61 -235
266 -228 273 2 3 -7 16 -20 30 -13 14 -50 79 -83 143 l-59 118 -23 -31 c-37
-50 -153 -228 -178 -273 l-23 -40 36 -61 c83 -141 261 -353 393 -469 346 -302
753 -495 1268 -603 77 -16 176 -35 220 -41 286 -39 974 -56 1048 -25 39 16 84
65 93 101 16 63 13 69 -354 709 -184 322 -236 412 -414 720 -369 639 -708
1237 -703 1244 6 10 125 43 239 66 135 27 314 43 511 44 287 3 275 -11 349
391 42 225 166 880 181 959 26 131 18 188 -37 237 -35 33 -81 42 -228 49 -74
3 -157 8 -185 10 -66 6 -168 5 -230 -1 -27 -2 -108 -9 -180 -15 -326 -25 -731
-147 -1032 -309 l-72 -38 -40 76 c-23 42 -59 109 -81 147 -22 39 -77 139 -122
224 -97 181 -151 245 -240 289 -101 50 -177 61 -276 41z m114 -347 c16 -10
349 -621 342 -626 -4 -4 -175 -152 -207 -180 -42 -37 -217 -239 -273 -316
-198 -271 -322 -582 -373 -935 -15 -103 -28 -475 -17 -475 3 0 57 54 119 120
63 66 121 120 129 120 8 0 14 6 14 13 0 6 24 33 54 59 52 46 54 50 61 110 44
387 231 751 539 1046 304 290 625 466 1070 586 186 51 464 86 671 86 115 0
115 0 110 -22 -11 -45 -165 -923 -165 -939 0 -14 -23 -17 -167 -23 -355 -14
-637 -74 -953 -203 -403 -164 -717 -377 -1042 -709 -198 -203 -319 -356 -457
-582 -94 -153 -142 -247 -205 -399 -113 -274 -206 -700 -206 -940 l0 -73 -690
0 c-379 0 -690 1 -690 3 0 1 33 66 73 142 40 77 93 178 117 225 24 47 94 182
155 300 62 118 154 296 205 395 51 99 128 245 170 325 43 80 118 222 168 315
121 230 306 576 379 710 158 289 265 488 371 685 368 685 600 1106 639 1158
24 32 38 38 59 24z"/>
<path d="M3930 2012 c0 -5 7 -9 15 -9 8 0 15 4 15 9 0 4 -7 8 -15 8 -8 0 -15
-4 -15 -8z"/>
</g>
</svg>
