<?xml version="1.0" encoding="UTF-8"?>
<svg id="Layer_2" data-name="Layer 2" xmlns="http://www.w3.org/2000/svg" viewBox="0 0 667.99 236.74">
  <defs>
    <style>
      .cls-1, .cls-2, .cls-3 {
        fill: #011638;
      }

      .cls-1, .cls-4 {
        stroke-width: 0px;
      }

      .cls-2 {
        font-family: Nelphim-Regular, 'Nelphim ';
        font-size: 66px;
      }

      .cls-5 {
        letter-spacing: -.08em;
      }

      .cls-4 {
        fill: #2958ff;
      }

      .cls-6 {
        letter-spacing: 0em;
      }

      .cls-3 {
        font-family: CourierNewPSMT, 'Courier New';
        font-size: 33px;
        letter-spacing: .21em;
      }
    </style>
  </defs>
  <g id="Layer_1-2" data-name="Layer 1">
    <g>
      <g>
        <path class="cls-1" d="m207.58,178.25c2.74,8,4.91,15.03,7.54,21.74,1.25,3.17.78,4.61-1.24,6.66-12.76,12.89-27.14,21.29-42.89,25.2-45.07,11.19-87.87,3.89-126.82-29.32-20.35-17.35-35.19-40.88-41.46-72.13C-6.77,83.13,9.05,39.66,43.12,18.22,67.63,2.79,93.76-1.35,120.53.36c29.92,1.9,58.39,11.11,84.33,31.44,7.1,5.57,13.49,12.3,18.5,21.05,2.84,4.96,4.91,10.39,5.72,16.53.66,4.95.13,9.65-2.17,13.84-1.9,3.45-3.5,4.49-6.4.78-8.36-10.68-18.39-17.72-29.93-20.73-2.59-.68-4.25-2.22-5.52-5.27-3.62-8.71-7.91-16.85-12.8-24.47-11.25-17.52-25.69-27.01-42.98-29.62-15.72-2.37-31.29-2-46.48,4.53-33.7,14.5-53.17,54.34-50.57,103.34,3.19,60.14,36.64,106.93,83.53,117.12,15.02,3.27,29.96,3.25,44.71-1.64,21.05-6.98,37.69-21.63,47.11-49Z"/>
        <path class="cls-4" d="m121.61,222.25c-12.48-2.15-23.59-6.72-34.19-13.58-2.09-1.35-3.08-3.55-3.77-6.2-3.79-14.47-1.94-27.78,4.95-39.98,6.48-11.46,15.26-19.25,24.74-25.82,11.61-8.04,23.96-13.52,36.7-17.59,1.22-.39,2.6-.29,3.78-2.16-13.41-5.54-27.13-6.92-41.25-7.94,1.8-5.83,4.39-10.29,7.21-14.52,29.72-44.57,89.88-36.22,111.31,15.55,6.12,14.78,8.61,31.2,11.7,47.3,2.86,14.88,5.2,29.94,8.85,44.55.8,3.19,1.64,6.38,2.62,9.48,3.53,11.13,5.18,13.59,12.38,18.85-.52,2.11-1.86,1.21-2.84,1.17-24.64-.89-40.36-17.45-49.02-51.26-4.25-16.59-6.56-33.84-10.43-50.54-1.49-6.43-3.06-12.87-5.06-19.05-9.6-29.62-27.64-41.49-51.66-34.07-12.4,3.83-22.52,12.34-29.96,25.97-.63,1.15-1.61,2.76-1.39,3.75.46,2,2.2,1.09,3.36,1.14,11.52.42,22.84,2.51,33.9,6.71,1.53.58,3.95.23,4.08,3.39.11,2.77-2.11,2.88-3.44,3.73-10.26,6.56-19.55,14.82-26.98,26.24-10.3,15.81-15.28,33.91-13.35,54.83.7,7.56,3.57,13.76,7.74,20.05Z"/>
      </g>
      <text class="cls-2" transform="translate(265.66 131.4)"><tspan x="0" y="0">Costa &amp; </tspan><tspan class="cls-5" x="258.85" y="0">A</tspan><tspan class="cls-6" x="296.2" y="0">vila</tspan></text>
      <text class="cls-3" transform="translate(267.64 165.75)"><tspan x="0" y="0">ADVOCACIA</tspan></text>
    </g>
  </g>
</svg>