<?xml version="1.0" encoding="UTF-8"?>
<svg id="Layer_2" data-name="Layer 2" xmlns="http://www.w3.org/2000/svg" viewBox="0 0 828.72 236.74">
  <defs>
    <style>
      .cls-1, .cls-2 {
        fill: #011638;
      }

      .cls-1, .cls-3 {
        stroke-width: 0px;
      }

      .cls-2 {
        stroke: #011638;
        stroke-miterlimit: 10;
        stroke-width: .5px;
      }

      .cls-3 {
        fill: #2958ff;
      }
    </style>
  </defs>
  <g id="Layer_1-2" data-name="Layer 1">
    <g>
      <g>
        <path class="cls-1" d="m207.58,178.25c2.74,8,4.91,15.03,7.54,21.74,1.25,3.17.78,4.61-1.24,6.66-12.76,12.89-27.14,21.29-42.89,25.2-45.07,11.19-87.87,3.89-126.82-29.32-20.35-17.35-35.19-40.88-41.46-72.13C-6.77,83.13,9.05,39.66,43.12,18.22,67.63,2.79,93.76-1.35,120.53.36c29.92,1.9,58.39,11.11,84.33,31.44,7.1,5.57,13.49,12.3,18.5,21.05,2.84,4.96,4.91,10.39,5.72,16.53.66,4.95.13,9.65-2.17,13.84-1.9,3.45-3.5,4.49-6.4.78-8.36-10.68-18.39-17.72-29.93-20.73-2.59-.68-4.25-2.22-5.52-5.27-3.62-8.71-7.91-16.85-12.8-24.47-11.25-17.52-25.69-27.01-42.98-29.62-15.72-2.37-31.29-2-46.48,4.53-33.7,14.5-53.17,54.34-50.57,103.34,3.19,60.14,36.64,106.93,83.53,117.12,15.02,3.27,29.96,3.25,44.71-1.64,21.05-6.98,37.69-21.63,47.11-49Z"/>
        <path class="cls-3" d="m121.61,222.25c-12.48-2.15-23.59-6.72-34.19-13.58-2.09-1.35-3.08-3.55-3.77-6.2-3.79-14.47-1.94-27.78,4.95-39.98,6.48-11.46,15.26-19.25,24.74-25.82,11.61-8.04,23.96-13.52,36.7-17.59,1.22-.39,2.6-.29,3.78-2.16-13.41-5.54-27.13-6.92-41.25-7.94,1.8-5.83,4.39-10.29,7.21-14.52,29.72-44.57,89.88-36.22,111.31,15.55,6.12,14.78,8.61,31.2,11.7,47.3,2.86,14.88,5.2,29.94,8.85,44.55.8,3.19,1.64,6.38,2.62,9.48,3.53,11.13,5.18,13.59,12.38,18.85-.52,2.11-1.86,1.21-2.84,1.17-24.64-.89-40.36-17.45-49.02-51.26-4.25-16.59-6.56-33.84-10.43-50.54-1.49-6.43-3.06-12.87-5.06-19.05-9.6-29.62-27.64-41.49-51.66-34.07-12.4,3.83-22.52,12.34-29.96,25.97-.63,1.15-1.61,2.76-1.39,3.75.46,2,2.2,1.09,3.36,1.14,11.52.42,22.84,2.51,33.9,6.71,1.53.58,3.95.23,4.08,3.39.11,2.77-2.11,2.88-3.44,3.73-10.26,6.56-19.55,14.82-26.98,26.24-10.3,15.81-15.28,33.91-13.35,54.83.7,7.56,3.57,13.76,7.74,20.05Z"/>
      </g>
      <g>
        <path class="cls-1" d="m267.54,92.84c0-12.6,10.38-23.65,23.79-23.65,7.77,0,13.74,1.14,19.83,3.75l-12.53,25.33c-.8-22.65-4.69-28.48-7.71-28.48-2.81,0-4.56,5.56-4.56,14.87,0,15.34,4.69,23.85,13.07,23.85,5.83,0,11.06-4.09,12.19-12.46l.4.07c-1.14,12.6-8.98,19.97-21.17,19.97-14.81,0-23.32-8.44-23.32-23.25Z"/>
        <path class="cls-1" d="m314.91,93.51c0-14.67,12.93-24.32,26.47-24.32,15.34,0,24.19,8.17,24.19,22.58s-12.93,24.32-26.47,24.32c-15.41,0-24.19-8.24-24.19-22.58Zm31.22-.94c-.74-13.87-3.69-22.71-7.5-22.71s-5.09,8.24-4.29,22.85c.74,13.87,3.69,22.71,7.5,22.71s5.09-8.24,4.29-22.85Z"/>
        <path class="cls-1" d="m366.3,115.29l6.5-21.71c-2.55-2.48-3.95-5.63-3.95-9.38,0-9.18,8.58-15.01,19.83-15.01,8.11,0,14,1.67,18.29.8l-5.56,18.36c6.43,3.68,9.18,7.71,9.18,12.93,0,9.05-8.17,14.81-21.51,14.81-9.25,0-17.35-2.75-22.78-.8Zm22.78.13c4.02,0,7.04-2.61,7.04-6.03,0-2.88-2.08-4.69-9.25-8.11l-9.11-4.35c-1.67-.8-3.15-1.74-4.35-2.81,1.94,11.79,7.97,21.31,15.68,21.31Zm2.95-31.76l6.37,3.08,2.68,1.41c.4-9.71-5.29-18.36-12.66-18.36-3.35,0-5.36,1.74-5.36,4.82,0,3.42,2.55,5.9,8.98,9.04Z"/>
        <path class="cls-1" d="m426.2,100.75v-29.95c-3.08.67-8.17,8.64-13.87,22.24l1.68-24.25c.94.8,4.49,1.34,11.86,1.34h17.49c10.39,0,12.73-.54,13.8-1.34l-1.68,24.25c-3.89-13.6-6.23-21.57-11.19-22.24v29.95c0,12.26.54,13.47,6.57,14.47v.2h-31.22v-.2c6.03-1,6.57-2.21,6.57-14.47Z"/>
        <path class="cls-1" d="m481.21,102.29l-.27-.94h-14.94l-.2.67c-3.15,10.99-2.28,12.53,6.7,13.2v.2h-19.3v-.2c3.69-.6,6.03-1.74,10.79-15.41l7.5-21.51c1.14-3.22.47-5.43-.8-9.51.94.8,4.56,1.34,11.99,1.34h7.5l9.92,30.49c4.22,13,4.82,14.07,7.57,14.61v.2h-32.16v-.2c8.31-.67,9.04-2.28,5.7-12.93Zm-.74-2.28l-7.37-23.52-6.7,23.52h14.07Z"/>
        <path class="cls-1" d="m526.16,102.36c0-7.37,8.58-11.66,14.87-12.86-6.16-5.96-9.78-13.6-10.59-21.78h27.6c7.84,0,11.52,5.9,11.52,10.79,0,6.23-6.7,10.85-15.48,13.2,4.02,3.35,10.12,6.83,14.81,9.25,3.02-3.15,5.96-10.45,5.96-14.34l8.58.2c0,3.95-3.89,14.14-7.37,17.89,2.35,1.41,6.5,3.22,7.3,3.68l-.07,7.77c-.87-.4-8.98-3.95-12.06-5.83-3.62,4.02-12.26,8.04-21.51,8.04-13.27,0-23.58-7.24-23.58-16.01Zm9.25-.47c0,5.63,7.71,8.84,15.01,8.84,4.82,0,10.25-1.27,13.67-4.35-6.16-3.28-14.34-8.11-18.56-12.06-4.22,1-10.12,3.75-10.12,7.57Zm13.53-14.54c5.43-1.21,11.59-3.28,11.59-6.83,0-2.48-2.14-4.56-5.36-4.69l-14.2.07c1.27,3.89,3.95,7.77,7.97,11.46Z"/>
        <path class="cls-1" d="m630.08,102.29l-.27-.94h-14.94l-.2.67c-3.15,10.99-2.28,12.53,6.7,13.2v.2h-19.3v-.2c3.69-.6,6.03-1.74,10.79-15.41l7.5-21.51c1.14-3.22.47-5.43-.8-9.51.94.8,4.56,1.34,11.99,1.34h7.5l9.92,30.49c4.22,13,4.82,14.07,7.57,14.61v.2h-32.16v-.2c8.31-.67,9.04-2.28,5.7-12.93Zm-.74-2.28l-7.37-23.52-6.7,23.52h14.07Z"/>
        <path class="cls-1" d="m648.51,70.33v-.2h33.1v.2c-9.31.74-7.44,4.82-2.88,14.61l4.42,9.58,3.02-8.17c4.35-11.79,5.16-15.41-2.61-16.01v-.2h14.61v.2c-2.34.47-5.49,4.15-10.65,16.01l-12.8,29.48h-.27l-15.81-30.89c-6.5-12.73-7.77-13.94-10.12-14.61Z"/>
        <path class="cls-1" d="m705.05,100.61v-16.01c0-12.73-.54-13.6-5.23-14.27v-.2h28.54v.2c-4.69.67-5.23,1.54-5.23,14.27v16.01c0,12.73.54,13.94,5.23,14.61v.2h-28.54v-.2c4.69-.67,5.23-1.88,5.23-14.61Z"/>
        <path class="cls-1" d="m756.98,115.42h-26.6v-.2c4.69-.67,5.23-1.88,5.23-14.61v-15.68c0-12.73-.54-13.94-5.23-14.61v-.2h29.88v.2c-6.03,1-6.57,1.88-6.57,14.61v15.68c0,5.76.47,10.25,1.21,12.13.54,1.54,1.61,2.34,2.95,2.34,4.76,0,9.38-10.32,14.41-23.25v24.92c-1-.8-4.62-1.34-15.28-1.34Z"/>
        <path class="cls-1" d="m802,102.29l-.27-.94h-14.94l-.2.67c-3.15,10.99-2.28,12.53,6.7,13.2v.2h-19.3v-.2c3.69-.6,6.03-1.74,10.79-15.41l7.5-21.51c1.14-3.22.47-5.43-.8-9.51.94.8,4.56,1.34,11.99,1.34h7.5l9.92,30.49c4.22,13,4.82,14.07,7.57,14.61v.2h-32.16v-.2c8.31-.67,9.04-2.28,5.7-12.93Zm-.74-2.28l-7.37-23.52-6.7,23.52h14.07Z"/>
      </g>
      <g>
        <path class="cls-2" d="m283.63,153.04h-9.88l-3.2,7.97h2.88c.35,0,.58.07.7.22s.18.36.18.64c0,.36-.1.67-.3.93s-.5.39-.89.39h-5.6c-.33,0-.56-.08-.68-.23s-.18-.37-.18-.65c0-.35.1-.65.3-.91s.49-.39.89-.39h1.15l10.47-26h-4.44c-.33,0-.56-.07-.68-.22s-.18-.37-.18-.66c0-.35.1-.65.3-.91s.49-.39.89-.39h7.55l3.22,28.18h1.16c.33,0,.56.07.68.22s.18.36.18.64c0,.36-.1.67-.3.93s-.49.39-.89.39h-5.62c-.33,0-.56-.08-.68-.23s-.18-.37-.18-.65c0-.35.1-.65.3-.91s.49-.39.89-.39h2.88l-.89-7.97Zm-.25-2.18l-1.83-15.86h-.55l-6.37,15.86h8.75Z"/>
        <path class="cls-2" d="m295.18,161l3.81-26h-1.25c-.33,0-.56-.07-.68-.22s-.18-.37-.18-.66c0-.35.1-.65.3-.91s.49-.39.89-.39h8.07c1.94,0,3.56.99,4.84,2.96s1.92,4.58,1.92,7.84c0,.87-.08,1.83-.23,2.88l-.45,3.01c-.32,2.25-.99,4.44-2,6.57s-2.48,3.99-4.41,5.58c-1.25,1.02-2.63,1.53-4.13,1.53h-8.07c-.33,0-.56-.08-.68-.23s-.18-.37-.18-.65c0-.35.1-.65.3-.91s.49-.39.89-.39h1.25Zm1.52,0h5.46c.81,0,1.56-.19,2.25-.57s1.58-1.19,2.69-2.41c.79-.87,1.52-2.05,2.2-3.57s1.13-3.01,1.34-4.48l.57-3.94c.11-.67.16-1.3.16-1.87,0-2.79-.52-5.01-1.57-6.67s-2.33-2.49-3.83-2.49h-5.46l-3.81,26Z"/>
        <path class="cls-2" d="m326.67,163.18h-2.09l-3.44-28.18h-1.16c-.26,0-.44-.03-.54-.09s-.17-.16-.23-.3-.09-.3-.09-.49c0-.22.05-.45.15-.66s.22-.38.37-.48.36-.16.66-.16h5.58c.27,0,.46.03.55.09s.17.16.23.3.1.29.1.47c0,.24-.05.47-.15.69s-.22.38-.37.48-.37.16-.68.16h-2.86l3.17,26h.11l10.7-26h-2.86c-.27,0-.46-.03-.55-.09s-.17-.16-.23-.3-.09-.3-.09-.49c0-.22.05-.45.15-.66s.22-.38.37-.48.37-.16.68-.16h5.58c.26,0,.44.03.54.09s.17.16.23.3.09.29.09.47c0,.24-.05.47-.14.69s-.22.38-.37.48-.37.16-.67.16h-1.15l-11.58,28.18Z"/>
        <path class="cls-2" d="m350.02,164.04c-2.04,0-3.74-1.07-5.09-3.21s-2.03-5.02-2.03-8.65c0-2.85.39-5.58,1.18-8.17s1.78-4.78,2.97-6.57,2.43-3.11,3.72-4,2.6-1.32,3.92-1.32c2.41,0,4.2,1.22,5.37,3.67s1.75,5.13,1.75,8.03c0,3.48-.59,6.83-1.78,10.07s-2.7,5.74-4.55,7.5-3.67,2.65-5.47,2.65Zm.27-2.18c1.49,0,3.03-.77,4.63-2.32s2.88-3.74,3.87-6.57,1.48-5.69,1.48-8.58c0-3.08-.57-5.53-1.7-7.36s-2.5-2.74-4.1-2.74c-1.12,0-2.23.38-3.32,1.15s-2.14,1.92-3.15,3.46-1.85,3.44-2.53,5.7-1.02,4.57-1.02,6.94c0,3.2.57,5.72,1.71,7.55s2.52,2.75,4.14,2.75Z"/>
        <path class="cls-2" d="m385.49,135.8l.23-1.53c.07-.52.19-.89.37-1.12s.37-.34.6-.34c.18,0,.33.08.44.23s.17.35.17.57c0,.14-.02.35-.07.65l-.89,6.05c-.07.54-.19.92-.37,1.14s-.37.34-.6.34c-.17,0-.31-.08-.42-.25s-.17-.35-.17-.56c0-.12.01-.29.04-.51s.04-.44.04-.66c0-1.31-.44-2.48-1.32-3.5-1.15-1.35-2.54-2.02-4.17-2.02-1.13,0-2.27.36-3.42,1.09-.87.55-1.59,1.23-2.15,2.02-1.04,1.45-1.9,2.99-2.58,4.62-.47,1.12-.81,2.44-1.04,3.94l-.55,3.81c-.12.81-.18,1.62-.18,2.41,0,2.75.62,5.05,1.86,6.89s2.79,2.76,4.64,2.76c1.25,0,2.45-.4,3.59-1.19s2.32-2.03,3.55-3.71c.26-.36.51-.54.75-.54.19,0,.34.07.44.22s.15.33.15.56c0,.36-.13.74-.39,1.14-1.16,1.78-2.49,3.18-4,4.19s-2.97,1.52-4.38,1.52c-1.19,0-2.33-.35-3.4-1.06-.8-.52-1.43-1.13-1.9-1.84-.72-1.09-1.31-2.38-1.78-3.88s-.71-2.95-.71-4.37c0-.93.07-1.86.2-2.78l.64-4.44c.32-2.15,1.05-4.35,2.18-6.6s2.48-3.98,4.04-5.16,3.12-1.78,4.7-1.78c1.24,0,2.35.31,3.33.92s1.83,1.54,2.54,2.76Z"/>
        <path class="cls-2" d="m406.44,153.04h-9.88l-3.2,7.97h2.88c.35,0,.58.07.7.22s.18.36.18.64c0,.36-.1.67-.3.93s-.5.39-.89.39h-5.6c-.33,0-.56-.08-.68-.23s-.18-.37-.18-.65c0-.35.1-.65.3-.91s.49-.39.89-.39h1.15l10.47-26h-4.44c-.33,0-.56-.07-.68-.22s-.18-.37-.18-.66c0-.35.1-.65.3-.91s.49-.39.89-.39h7.55l3.22,28.18h1.16c.33,0,.56.07.68.22s.18.36.18.64c0,.36-.1.67-.3.93s-.49.39-.89.39h-5.62c-.33,0-.56-.08-.68-.23s-.18-.37-.18-.65c0-.35.1-.65.3-.91s.49-.39.89-.39h2.88l-.89-7.97Zm-.25-2.18l-1.83-15.86h-.55l-6.37,15.86h8.75Z"/>
        <path class="cls-2" d="m434.62,135.8l.23-1.53c.07-.52.19-.89.37-1.12s.37-.34.6-.34c.18,0,.33.08.44.23s.17.35.17.57c0,.14-.02.35-.07.65l-.89,6.05c-.07.54-.19.92-.37,1.14s-.37.34-.6.34c-.17,0-.31-.08-.42-.25s-.17-.35-.17-.56c0-.12.01-.29.04-.51s.04-.44.04-.66c0-1.31-.44-2.48-1.32-3.5-1.15-1.35-2.54-2.02-4.17-2.02-1.13,0-2.27.36-3.42,1.09-.87.55-1.59,1.23-2.15,2.02-1.04,1.45-1.9,2.99-2.58,4.62-.47,1.12-.81,2.44-1.04,3.94l-.55,3.81c-.12.81-.18,1.62-.18,2.41,0,2.75.62,5.05,1.86,6.89s2.79,2.76,4.64,2.76c1.25,0,2.45-.4,3.59-1.19s2.32-2.03,3.55-3.71c.26-.36.51-.54.75-.54.19,0,.34.07.44.22s.15.33.15.56c0,.36-.13.74-.39,1.14-1.16,1.78-2.49,3.18-4,4.19s-2.97,1.52-4.38,1.52c-1.19,0-2.33-.35-3.4-1.06-.8-.52-1.43-1.13-1.9-1.84-.72-1.09-1.31-2.38-1.78-3.88s-.71-2.95-.71-4.37c0-.93.07-1.86.2-2.78l.64-4.44c.32-2.15,1.05-4.35,2.18-6.6s2.48-3.98,4.04-5.16,3.12-1.78,4.7-1.78c1.24,0,2.35.31,3.33.92s1.83,1.54,2.54,2.76Z"/>
        <path class="cls-2" d="m453.25,135l-3.81,26h5.15c.33,0,.56.07.68.22s.18.36.18.64c0,.36-.1.67-.3.93s-.49.39-.89.39h-11.81c-.33,0-.56-.08-.68-.23s-.18-.37-.18-.65c0-.35.1-.65.3-.91s.49-.39.89-.39h5.15l3.81-26h-5.15c-.33,0-.56-.07-.68-.22s-.18-.37-.18-.66c0-.35.1-.65.3-.91s.49-.39.89-.39h11.79c.35,0,.58.07.7.22s.18.36.18.64c0,.36-.1.67-.3.93s-.5.39-.88.39h-5.15Z"/>
        <path class="cls-2" d="m480.12,153.04h-9.88l-3.2,7.97h2.88c.35,0,.58.07.7.22s.18.36.18.64c0,.36-.1.67-.3.93s-.5.39-.89.39h-5.6c-.33,0-.56-.08-.68-.23s-.18-.37-.18-.65c0-.35.1-.65.3-.91s.49-.39.89-.39h1.15l10.47-26h-4.44c-.33,0-.56-.07-.68-.22s-.18-.37-.18-.66c0-.35.1-.65.3-.91s.49-.39.89-.39h7.55l3.22,28.18h1.16c.33,0,.56.07.68.22s.18.36.18.64c0,.36-.1.67-.3.93s-.49.39-.89.39h-5.62c-.33,0-.56-.08-.68-.23s-.18-.37-.18-.65c0-.35.1-.65.3-.91s.49-.39.89-.39h2.88l-.89-7.97Zm-.25-2.18l-1.83-15.86h-.55l-6.37,15.86h8.75Z"/>
        <path class="cls-2" d="m526.34,163.18l-.77-2.57c-1.41,2.28-2.96,3.43-4.65,3.43-1.22,0-2.24-.62-3.06-1.86s-1.23-2.83-1.23-4.79c0-2.13.49-4.1,1.48-5.93s2.29-3.08,3.93-3.75c-.49-1.73-.78-2.87-.89-3.41s-.15-1.05-.15-1.52c0-1.85.57-3.58,1.72-5.18s2.44-2.4,3.88-2.4c.41,0,.8.09,1.18.26s.75.44,1.09.8c.57-.38.92-.57,1.04-.57.18,0,.33.08.44.25s.17.37.17.61c0,.26-.05.5-.16.73s-.32.44-.64.65l-1.31.91c-.3-.48-.62-.84-.98-1.08s-.73-.35-1.14-.35c-.95,0-1.82.55-2.6,1.65s-1.17,2.25-1.17,3.46c0,.99.3,2.51.89,4.57l2.76,9.58c1.01-2.01,1.92-4.31,2.72-6.9h1.47c.26,0,.44.03.53.09s.17.16.23.31.1.31.1.48c0,.22-.06.46-.17.7s-.25.41-.42.49c-.12.09-.43.13-.93.13-.97,2.87-1.95,5.14-2.95,6.8l.7,2.23h1.27c.33,0,.56.07.68.22s.18.36.18.64c0,.36-.1.67-.3.93s-.49.39-.89.39h-2.04Zm-3.94-13.55c-1.25.4-2.27,1.29-3.06,2.69s-1.18,2.95-1.18,4.68c0,1.4.3,2.56.89,3.48s1.31,1.38,2.16,1.38c1.32,0,2.59-1.09,3.79-3.27l-2.6-8.95Z"/>
        <path class="cls-2" d="m581.98,135.8l.23-1.53c.07-.52.19-.89.37-1.12s.37-.34.6-.34c.18,0,.33.08.44.23s.17.35.17.57c0,.14-.02.35-.07.65l-.89,6.05c-.07.54-.19.92-.37,1.14s-.37.34-.6.34c-.17,0-.31-.08-.42-.25s-.17-.35-.17-.56c0-.12.01-.29.04-.51s.04-.44.04-.66c0-1.31-.44-2.48-1.32-3.5-1.15-1.35-2.54-2.02-4.17-2.02-1.13,0-2.27.36-3.42,1.09-.87.55-1.59,1.23-2.15,2.02-1.04,1.45-1.9,2.99-2.58,4.62-.47,1.12-.81,2.44-1.04,3.94l-.55,3.81c-.12.81-.18,1.62-.18,2.41,0,2.75.62,5.05,1.86,6.89s2.79,2.76,4.64,2.76c1.25,0,2.45-.4,3.59-1.19s2.32-2.03,3.55-3.71c.26-.36.51-.54.75-.54.19,0,.34.07.44.22s.15.33.15.56c0,.36-.13.74-.39,1.14-1.16,1.78-2.49,3.18-4,4.19s-2.97,1.52-4.38,1.52c-1.19,0-2.33-.35-3.4-1.06-.8-.52-1.43-1.13-1.9-1.84-.72-1.09-1.31-2.38-1.78-3.88s-.71-2.95-.71-4.37c0-.93.07-1.86.2-2.78l.64-4.44c.32-2.15,1.05-4.35,2.18-6.6s2.48-3.98,4.04-5.16,3.12-1.78,4.7-1.78c1.24,0,2.35.31,3.33.92s1.83,1.54,2.54,2.76Z"/>
        <path class="cls-2" d="m595.62,164.04c-2.04,0-3.74-1.07-5.09-3.21s-2.03-5.02-2.03-8.65c0-2.85.39-5.58,1.18-8.17s1.78-4.78,2.97-6.57,2.43-3.11,3.72-4,2.6-1.32,3.92-1.32c2.41,0,4.2,1.22,5.37,3.67s1.75,5.13,1.75,8.03c0,3.48-.59,6.83-1.78,10.07s-2.7,5.74-4.55,7.5-3.67,2.65-5.47,2.65Zm.27-2.18c1.49,0,3.03-.77,4.63-2.32s2.88-3.74,3.87-6.57,1.48-5.69,1.48-8.58c0-3.08-.57-5.53-1.7-7.36s-2.5-2.74-4.1-2.74c-1.12,0-2.23.38-3.32,1.15s-2.14,1.92-3.15,3.46-1.85,3.44-2.53,5.7-1.02,4.57-1.02,6.94c0,3.2.57,5.72,1.71,7.55s2.52,2.75,4.14,2.75Z"/>
        <path class="cls-2" d="m627.67,163.18h-1.93l-7.09-27.17-3.67,24.99h2.77c.33,0,.56.07.68.22s.18.36.18.64c0,.36-.1.67-.3.93s-.49.39-.89.39h-5.55c-.33,0-.56-.08-.68-.23s-.18-.37-.18-.65c0-.35.1-.65.3-.91s.49-.39.89-.39h1.25l3.81-26h-2c-.33,0-.56-.07-.68-.22s-.18-.37-.18-.66c0-.35.1-.65.3-.91s.49-.39.89-.39h3.92l7.11,27.22,3.67-25.04h-2.77c-.33,0-.56-.07-.68-.22s-.18-.37-.18-.66c0-.35.1-.65.3-.91s.49-.39.89-.39h5.55c.33,0,.56.07.68.22s.18.36.18.64c0,.36-.1.67-.3.93s-.49.39-.89.39h-1.25l-4.13,28.18Z"/>
        <path class="cls-2" d="m654.36,135c.14-.97.27-1.55.39-1.74.2-.29.44-.44.7-.44.17,0,.31.08.42.23s.17.35.17.57c0,.14-.02.35-.07.65l-.81,5.55c-.08.52-.21.89-.38,1.12s-.37.34-.6.34c-.17,0-.31-.08-.42-.23s-.17-.35-.17-.57c0-.12.01-.3.04-.53s.04-.47.04-.71c0-1.3-.41-2.44-1.22-3.44s-1.93-1.49-3.35-1.49c-1.89,0-3.43.76-4.63,2.27s-1.8,3.2-1.8,5.05c0,1.37.36,2.4,1.07,3.11.72.73,1.97,1.31,3.78,1.76s3.02.86,3.65,1.22c.88.52,1.55,1.23,2,2.13s.68,2.02.68,3.35c0,1.8-.37,3.54-1.1,5.23s-1.85,3.04-3.34,4.07-3.04,1.54-4.64,1.54c-1.3,0-2.43-.3-3.38-.9s-1.74-1.48-2.34-2.66l-.18,1.25c-.07.52-.2.89-.38,1.12s-.38.34-.61.34c-.17,0-.31-.08-.42-.23s-.17-.35-.17-.57c0-.16.02-.37.05-.65l.89-6.02c.07-.54.19-.92.37-1.14s.37-.34.6-.34c.18,0,.33.08.44.23s.17.34.17.54c0,.12-.01.3-.04.54s-.04.48-.04.73c0,1.49.47,2.79,1.4,3.91s2.26,1.67,3.99,1.67c1.3,0,2.54-.4,3.7-1.21s2.04-1.84,2.62-3.11.87-2.54.87-3.8c0-.95-.17-1.77-.52-2.47s-.88-1.25-1.59-1.66c-.47-.28-1.5-.62-3.1-1.04-2.14-.54-3.66-1.29-4.58-2.26-.93-.97-1.4-2.39-1.4-4.26,0-2.54.78-4.84,2.34-6.88s3.52-3.06,5.87-3.06c1.05,0,1.99.24,2.83.71s1.56,1.2,2.17,2.17Z"/>
        <path class="cls-2" d="m680.81,135l-2.67,18.22c-.45,3.1-1.54,5.67-3.27,7.73s-3.61,3.09-5.65,3.09c-1.69,0-3.08-.79-4.17-2.36s-1.63-3.63-1.63-6.18c0-.69.06-1.45.18-2.28l2.67-18.22h-1.25c-.33,0-.56-.07-.68-.22s-.18-.36-.18-.64c0-.36.1-.67.3-.93s.49-.39.89-.39h5.55c.33,0,.56.07.68.22s.18.36.18.64c0,.36-.1.67-.3.93s-.5.39-.88.39h-2.77l-2.67,18.22c-.1.62-.14,1.25-.14,1.89,0,1.96.43,3.57,1.3,4.84s1.94,1.91,3.21,1.91c1.01,0,1.98-.32,2.89-.96s1.78-1.66,2.61-3.05,1.37-2.94,1.62-4.63l2.68-18.22h-2.77c-.33,0-.56-.07-.69-.22s-.19-.37-.19-.66c0-.35.1-.65.3-.91s.5-.39.89-.39h5.53c.35,0,.58.07.69.22s.17.36.17.64c0,.36-.1.67-.3.93s-.49.39-.89.39h-1.25Z"/>
        <path class="cls-2" d="m695.5,135l-3.81,26h9.99l1.27-8.67c.07-.52.2-.89.38-1.12s.38-.34.59-.34c.18,0,.33.08.44.23s.17.35.17.57c0,.14-.02.35-.05.65l-1.59,10.85h-16.61c-.33,0-.56-.08-.68-.23s-.18-.37-.18-.65c0-.35.1-.65.3-.91s.49-.39.89-.39h3.58l3.81-26h-3.58c-.33,0-.56-.07-.68-.22s-.18-.37-.18-.66c0-.35.1-.65.3-.91s.49-.39.89-.39h8.68c.33,0,.56.07.68.22s.18.36.18.64c0,.36-.1.67-.3.93s-.49.39-.89.39h-3.58Z"/>
        <path class="cls-2" d="m723.4,135l-3.81,26h3.9c.33,0,.56.07.68.22s.18.36.18.64c0,.36-.1.67-.3.93s-.49.39-.89.39h-9.32c-.33,0-.56-.08-.68-.23s-.18-.37-.18-.65c0-.35.1-.65.3-.91s.49-.39.89-.39h3.9l3.81-26h-6.16l-1.11,7.55c-.07.54-.19.92-.37,1.14s-.37.34-.6.34c-.18,0-.33-.08-.44-.25s-.17-.35-.17-.56c0-.16.02-.38.07-.67l1.43-9.73h16.84l-1.43,9.73c-.07.54-.2.92-.38,1.14s-.38.34-.61.34c-.17,0-.31-.08-.42-.25s-.17-.35-.17-.56c0-.16.02-.38.07-.67l1.11-7.55h-6.16Z"/>
        <path class="cls-2" d="m742.99,164.04c-2.04,0-3.74-1.07-5.09-3.21s-2.03-5.02-2.03-8.65c0-2.85.39-5.58,1.18-8.17s1.78-4.78,2.97-6.57,2.43-3.11,3.72-4,2.6-1.32,3.92-1.32c2.41,0,4.2,1.22,5.37,3.67s1.75,5.13,1.75,8.03c0,3.48-.59,6.83-1.78,10.07s-2.7,5.74-4.55,7.5-3.67,2.65-5.47,2.65Zm.27-2.18c1.49,0,3.03-.77,4.63-2.32s2.88-3.74,3.87-6.57,1.48-5.69,1.48-8.58c0-3.08-.57-5.53-1.7-7.36s-2.5-2.74-4.1-2.74c-1.12,0-2.23.38-3.32,1.15s-2.14,1.92-3.15,3.46-1.85,3.44-2.53,5.7-1.02,4.57-1.02,6.94c0,3.2.57,5.72,1.71,7.55s2.52,2.75,4.14,2.75Z"/>
        <path class="cls-2" d="m764.76,149.64l-1.66,11.37h2.77c.33,0,.56.07.68.22s.18.36.18.64c0,.36-.1.67-.3.93s-.49.39-.89.39h-6.3c-.33,0-.56-.08-.68-.23s-.18-.37-.18-.65c0-.35.1-.65.3-.91s.49-.39.89-.39h2.02l3.81-26h-2.02c-.33,0-.56-.07-.68-.22s-.18-.37-.18-.66c0-.35.1-.65.3-.91s.49-.39.89-.39h9.07c1.65,0,2.98.69,4,2.06s1.53,3.01,1.53,4.92c0,1.8-.5,3.53-1.49,5.2s-2.63,3.02-4.91,4.06c.91,1.06,1.64,2.24,2.2,3.57s1.38,4.11,2.45,8.37h1.16c.33,0,.56.07.68.22s.18.36.18.64c0,.36-.1.67-.3.93s-.49.39-.89.39h-2.02c-1.12-4.81-2.08-8.04-2.87-9.69s-1.79-2.94-2.98-3.85h-4.76Zm.32-2.18h4.08c1.38,0,2.71-.4,3.98-1.19s2.2-1.75,2.77-2.85.87-2.15.87-3.11c0-1.38-.41-2.61-1.22-3.69s-1.86-1.61-3.13-1.61h-5.53l-1.83,12.46Z"/>
        <path class="cls-2" d="m797.1,135l-3.81,26h5.15c.33,0,.56.07.68.22s.18.36.18.64c0,.36-.1.67-.3.93s-.49.39-.89.39h-11.81c-.33,0-.56-.08-.68-.23s-.18-.37-.18-.65c0-.35.1-.65.3-.91s.49-.39.89-.39h5.15l3.81-26h-5.15c-.33,0-.56-.07-.68-.22s-.18-.37-.18-.66c0-.35.1-.65.3-.91s.49-.39.89-.39h11.79c.35,0,.58.07.7.22s.18.36.18.64c0,.36-.1.67-.3.93s-.5.39-.88.39h-5.15Z"/>
        <path class="cls-2" d="m823.97,153.04h-9.88l-3.2,7.97h2.88c.35,0,.58.07.7.22s.18.36.18.64c0,.36-.1.67-.3.93s-.5.39-.89.39h-5.6c-.33,0-.56-.08-.68-.23s-.18-.37-.18-.65c0-.35.1-.65.3-.91s.49-.39.89-.39h1.15l10.47-26h-4.44c-.33,0-.56-.07-.68-.22s-.18-.37-.18-.66c0-.35.1-.65.3-.91s.49-.39.89-.39h7.55l3.22,28.18h1.16c.33,0,.56.07.68.22s.18.36.18.64c0,.36-.1.67-.3.93s-.49.39-.89.39h-5.62c-.33,0-.56-.08-.68-.23s-.18-.37-.18-.65c0-.35.1-.65.3-.91s.49-.39.89-.39h2.88l-.89-7.97Zm-.25-2.18l-1.83-15.86h-.55l-6.37,15.86h8.75Z"/>
      </g>
    </g>
  </g>
</svg>