<?xml version="1.0" encoding="UTF-8"?>
<svg id="Layer_2" data-name="Layer 2" xmlns="http://www.w3.org/2000/svg" viewBox="0 0 828.47 236.74">
  <defs>
    <style>
      .cls-1 {
        fill: #2958ff;
      }

      .cls-1, .cls-2 {
        stroke-width: 0px;
      }

      .cls-2, .cls-3 {
        fill: #fff;
      }

      .cls-3 {
        stroke: #fcfcfc;
        stroke-miterlimit: 10;
        stroke-width: .5px;
      }
    </style>
  </defs>
  <g id="Layer_1-2" data-name="Layer 1">
    <g>
      <g>
        <path class="cls-2" d="m207.58,178.25c2.74,8,4.91,15.03,7.54,21.74,1.25,3.17.78,4.61-1.24,6.66-12.76,12.89-27.14,21.29-42.89,25.2-45.07,11.19-87.87,3.89-126.82-29.32-20.35-17.35-35.19-40.88-41.46-72.13C-6.77,83.13,9.05,39.66,43.12,18.22,67.63,2.79,93.76-1.35,120.53.36c29.92,1.9,58.39,11.11,84.33,31.44,7.1,5.57,13.49,12.3,18.5,21.05,2.84,4.96,4.91,10.39,5.72,16.53.66,4.95.13,9.65-2.17,13.84-1.9,3.45-3.5,4.49-6.4.78-8.36-10.68-18.39-17.72-29.93-20.73-2.59-.68-4.25-2.22-5.52-5.27-3.62-8.71-7.91-16.85-12.8-24.47-11.25-17.52-25.69-27.01-42.98-29.62-15.72-2.37-31.29-2-46.48,4.53-33.7,14.5-53.17,54.34-50.57,103.34,3.19,60.14,36.64,106.93,83.53,117.12,15.02,3.27,29.96,3.25,44.71-1.64,21.05-6.98,37.69-21.63,47.11-49Z"/>
        <path class="cls-1" d="m121.61,222.25c-12.48-2.15-23.59-6.72-34.19-13.58-2.09-1.35-3.08-3.55-3.77-6.2-3.79-14.47-1.94-27.78,4.95-39.98,6.48-11.46,15.26-19.25,24.74-25.82,11.61-8.04,23.96-13.52,36.7-17.59,1.22-.39,2.6-.29,3.78-2.16-13.41-5.54-27.13-6.92-41.25-7.94,1.8-5.83,4.39-10.29,7.21-14.52,29.72-44.57,89.88-36.22,111.31,15.55,6.12,14.78,8.61,31.2,11.7,47.3,2.86,14.88,5.2,29.94,8.85,44.55.8,3.19,1.64,6.38,2.62,9.48,3.53,11.13,5.18,13.59,12.38,18.85-.52,2.11-1.86,1.21-2.84,1.17-24.64-.89-40.36-17.45-49.02-51.26-4.25-16.59-6.56-33.84-10.43-50.54-1.49-6.43-3.06-12.87-5.06-19.05-9.6-29.62-27.64-41.49-51.66-34.07-12.4,3.83-22.52,12.34-29.96,25.97-.63,1.15-1.61,2.76-1.39,3.75.46,2,2.2,1.09,3.36,1.14,11.52.42,22.84,2.51,33.9,6.71,1.53.58,3.95.23,4.08,3.39.11,2.77-2.11,2.88-3.44,3.73-10.26,6.56-19.55,14.82-26.98,26.24-10.3,15.81-15.28,33.91-13.35,54.83.7,7.56,3.57,13.76,7.74,20.05Z"/>
      </g>
      <g>
        <path class="cls-2" d="m267.54,92.84c0-12.6,10.38-23.65,23.79-23.65,7.77,0,13.74,1.14,19.83,3.75l-12.53,25.33c-.8-22.65-4.69-28.48-7.71-28.48-2.81,0-4.56,5.56-4.56,14.87,0,15.34,4.69,23.85,13.07,23.85,5.83,0,11.06-4.09,12.19-12.46l.4.07c-1.14,12.6-8.98,19.97-21.17,19.97-14.81,0-23.32-8.44-23.32-23.25Z"/>
        <path class="cls-2" d="m314.91,93.51c0-14.67,12.93-24.32,26.47-24.32,15.34,0,24.19,8.17,24.19,22.58s-12.93,24.32-26.47,24.32c-15.41,0-24.19-8.24-24.19-22.58Zm31.22-.94c-.74-13.87-3.69-22.71-7.5-22.71s-5.09,8.24-4.29,22.85c.74,13.87,3.69,22.71,7.5,22.71s5.09-8.24,4.29-22.85Z"/>
        <path class="cls-2" d="m366.3,115.29l6.5-21.71c-2.55-2.48-3.95-5.63-3.95-9.38,0-9.18,8.58-15.01,19.83-15.01,8.11,0,14,1.67,18.29.8l-5.56,18.36c6.43,3.68,9.18,7.71,9.18,12.93,0,9.05-8.17,14.81-21.51,14.81-9.25,0-17.35-2.75-22.78-.8Zm22.78.13c4.02,0,7.04-2.61,7.04-6.03,0-2.88-2.08-4.69-9.25-8.11l-9.11-4.35c-1.67-.8-3.15-1.74-4.35-2.81,1.94,11.79,7.97,21.31,15.68,21.31Zm2.95-31.76l6.37,3.08,2.68,1.41c.4-9.71-5.29-18.36-12.66-18.36-3.35,0-5.36,1.74-5.36,4.82,0,3.42,2.55,5.9,8.98,9.04Z"/>
        <path class="cls-2" d="m426.2,100.75v-29.95c-3.08.67-8.17,8.64-13.87,22.24l1.68-24.25c.94.8,4.49,1.34,11.86,1.34h17.49c10.39,0,12.73-.54,13.8-1.34l-1.68,24.25c-3.89-13.6-6.23-21.57-11.19-22.24v29.95c0,12.26.54,13.47,6.57,14.47v.2h-31.22v-.2c6.03-1,6.57-2.21,6.57-14.47Z"/>
        <path class="cls-2" d="m481.21,102.29l-.27-.94h-14.94l-.2.67c-3.15,10.99-2.28,12.53,6.7,13.2v.2h-19.3v-.2c3.69-.6,6.03-1.74,10.79-15.41l7.5-21.51c1.14-3.22.47-5.43-.8-9.51.94.8,4.56,1.34,11.99,1.34h7.5l9.92,30.49c4.22,13,4.82,14.07,7.57,14.61v.2h-32.16v-.2c8.31-.67,9.04-2.28,5.7-12.93Zm-.74-2.28l-7.37-23.52-6.7,23.52h14.07Z"/>
        <path class="cls-2" d="m526.16,102.36c0-7.37,8.58-11.66,14.87-12.86-6.16-5.96-9.78-13.6-10.59-21.78h27.6c7.84,0,11.52,5.9,11.52,10.79,0,6.23-6.7,10.85-15.48,13.2,4.02,3.35,10.12,6.83,14.81,9.25,3.02-3.15,5.96-10.45,5.96-14.34l8.58.2c0,3.95-3.89,14.14-7.37,17.89,2.35,1.41,6.5,3.22,7.3,3.68l-.07,7.77c-.87-.4-8.98-3.95-12.06-5.83-3.62,4.02-12.26,8.04-21.51,8.04-13.27,0-23.58-7.24-23.58-16.01Zm9.25-.47c0,5.63,7.71,8.84,15.01,8.84,4.82,0,10.25-1.27,13.67-4.35-6.16-3.28-14.34-8.11-18.56-12.06-4.22,1-10.12,3.75-10.12,7.57Zm13.53-14.54c5.43-1.21,11.59-3.28,11.59-6.83,0-2.48-2.14-4.56-5.36-4.69l-14.2.07c1.27,3.89,3.95,7.77,7.97,11.46Z"/>
        <path class="cls-2" d="m630.08,102.29l-.27-.94h-14.94l-.2.67c-3.15,10.99-2.28,12.53,6.7,13.2v.2h-19.3v-.2c3.69-.6,6.03-1.74,10.79-15.41l7.5-21.51c1.14-3.22.47-5.43-.8-9.51.94.8,4.56,1.34,11.99,1.34h7.5l9.92,30.49c4.22,13,4.82,14.07,7.57,14.61v.2h-32.16v-.2c8.31-.67,9.04-2.28,5.7-12.93Zm-.74-2.28l-7.37-23.52-6.7,23.52h14.07Z"/>
        <path class="cls-2" d="m648.51,70.33v-.2h33.1v.2c-9.31.74-7.44,4.82-2.88,14.61l4.42,9.58,3.02-8.17c4.35-11.79,5.16-15.41-2.61-16.01v-.2h14.61v.2c-2.34.47-5.49,4.15-10.65,16.01l-12.8,29.48h-.27l-15.81-30.89c-6.5-12.73-7.77-13.94-10.12-14.61Z"/>
        <path class="cls-2" d="m705.05,100.61v-16.01c0-12.73-.54-13.6-5.23-14.27v-.2h28.54v.2c-4.69.67-5.23,1.54-5.23,14.27v16.01c0,12.73.54,13.94,5.23,14.61v.2h-28.54v-.2c4.69-.67,5.23-1.88,5.23-14.61Z"/>
        <path class="cls-2" d="m756.98,115.42h-26.6v-.2c4.69-.67,5.23-1.88,5.23-14.61v-15.68c0-12.73-.54-13.94-5.23-14.61v-.2h29.88v.2c-6.03,1-6.57,1.88-6.57,14.61v15.68c0,5.76.47,10.25,1.21,12.13.54,1.54,1.61,2.34,2.95,2.34,4.76,0,9.38-10.32,14.41-23.25v24.92c-1-.8-4.62-1.34-15.28-1.34Z"/>
        <path class="cls-2" d="m802,102.29l-.27-.94h-14.94l-.2.67c-3.15,10.99-2.28,12.53,6.7,13.2v.2h-19.3v-.2c3.69-.6,6.03-1.74,10.79-15.41l7.5-21.51c1.14-3.22.47-5.43-.8-9.51.94.8,4.56,1.34,11.99,1.34h7.5l9.92,30.49c4.22,13,4.82,14.07,7.57,14.61v.2h-32.16v-.2c8.31-.67,9.04-2.28,5.7-12.93Zm-.74-2.28l-7.37-23.52-6.7,23.52h14.07Z"/>
      </g>
      <g>
        <path class="cls-3" d="m287.62,154.29h-9.7l-3.15,5.4h2.83c.34,0,.57.05.69.15s.18.24.18.43c0,.25-.1.46-.3.63s-.49.26-.88.26h-5.5c-.33,0-.55-.05-.67-.16s-.18-.25-.18-.44c0-.23.1-.44.29-.62s.48-.26.87-.26h1.12l10.28-17.61h-4.36c-.33,0-.55-.05-.67-.15s-.18-.25-.18-.45c0-.23.1-.44.29-.62s.48-.26.87-.26h7.42l3.16,19.09h1.14c.33,0,.55.05.67.15s.18.24.18.43c0,.25-.1.46-.29.63s-.48.26-.87.26h-5.52c-.33,0-.55-.05-.67-.16s-.18-.25-.18-.44c0-.23.1-.44.29-.62s.48-.26.87-.26h2.83l-.88-5.4Zm-.25-1.48l-1.79-10.74h-.54l-6.26,10.74h8.6Z"/>
        <path class="cls-3" d="m298.97,159.68l3.74-17.61h-1.23c-.33,0-.55-.05-.67-.15s-.18-.25-.18-.45c0-.23.1-.44.29-.62s.48-.26.87-.26h7.93c1.91,0,3.5.67,4.75,2s1.89,3.11,1.89,5.31c0,.59-.08,1.24-.23,1.95l-.44,2.04c-.32,1.52-.97,3.01-1.96,4.45s-2.43,2.7-4.33,3.78c-1.23.69-2.58,1.04-4.06,1.04h-7.93c-.33,0-.55-.05-.67-.16s-.18-.25-.18-.44c0-.23.1-.44.29-.62s.48-.26.87-.26h1.23Zm1.49,0h5.36c.8,0,1.53-.13,2.21-.39s1.56-.8,2.65-1.63c.77-.59,1.49-1.39,2.16-2.42s1.11-2.04,1.32-3.03l.56-2.67c.11-.46.16-.88.16-1.27,0-1.89-.52-3.39-1.55-4.52s-2.29-1.69-3.76-1.69h-5.36l-3.74,17.61Z"/>
        <path class="cls-3" d="m329.89,161.16h-2.06l-3.38-19.09h-1.14c-.26,0-.43-.02-.53-.06s-.17-.11-.23-.2-.09-.21-.09-.33c0-.15.05-.3.15-.45s.22-.25.36-.33.36-.11.65-.11h5.48c.27,0,.45.02.54.06s.16.11.23.2.1.2.1.32c0,.16-.05.32-.15.47s-.22.25-.36.33-.36.11-.67.11h-2.81l3.11,17.61h.11l10.51-17.61h-2.81c-.27,0-.45-.02-.54-.06s-.17-.11-.23-.2-.09-.21-.09-.33c0-.15.05-.3.15-.45s.22-.25.36-.33.36-.11.67-.11h5.48c.26,0,.43.02.53.06s.17.11.23.2.09.2.09.32c0,.16-.05.32-.14.47s-.21.25-.36.33-.37.11-.66.11h-1.12l-11.37,19.09Z"/>
        <path class="cls-3" d="m352.82,161.74c-2,0-3.67-.72-5-2.17s-2-3.4-2-5.86c0-1.93.39-3.78,1.16-5.54s1.75-3.24,2.92-4.45,2.39-2.11,3.66-2.71,2.55-.9,3.85-.9c2.37,0,4.12.83,5.27,2.49s1.72,3.47,1.72,5.44c0,2.36-.58,4.63-1.75,6.82s-2.65,3.88-4.46,5.08-3.6,1.79-5.37,1.79Zm.26-1.48c1.46,0,2.98-.52,4.54-1.57s2.83-2.53,3.8-4.45,1.45-3.85,1.45-5.81c0-2.09-.56-3.75-1.67-4.98s-2.46-1.85-4.03-1.85c-1.1,0-2.19.26-3.26.78s-2.1,1.3-3.09,2.35-1.82,2.33-2.49,3.86-1,3.1-1,4.7c0,2.17.56,3.87,1.68,5.12s2.48,1.86,4.07,1.86Z"/>
        <path class="cls-3" d="m387.67,142.61l.23-1.04c.07-.35.19-.6.36-.76s.37-.23.59-.23c.18,0,.32.05.43.16s.17.23.17.39c0,.09-.02.24-.07.44l-.88,4.1c-.07.36-.19.62-.36.77s-.37.23-.59.23c-.16,0-.3-.06-.41-.17s-.17-.24-.17-.38c0-.08.01-.2.04-.34s.04-.3.04-.45c0-.89-.43-1.68-1.3-2.37-1.12-.91-2.49-1.37-4.1-1.37-1.11,0-2.23.25-3.36.74-.86.38-1.56.83-2.11,1.37-1.02.98-1.86,2.03-2.53,3.13-.46.76-.8,1.65-1.02,2.67l-.54,2.58c-.12.55-.18,1.1-.18,1.63,0,1.86.61,3.42,1.83,4.67s2.74,1.87,4.55,1.87c1.23,0,2.41-.27,3.52-.81s2.28-1.38,3.49-2.51c.26-.25.5-.37.74-.37.19,0,.33.05.43.15s.15.23.15.38c0,.25-.13.5-.39.77-1.14,1.21-2.45,2.15-3.93,2.84s-2.92,1.03-4.3,1.03c-1.17,0-2.29-.24-3.34-.72-.79-.35-1.41-.77-1.86-1.25-.7-.74-1.29-1.61-1.75-2.63s-.69-2-.69-2.96c0-.63.06-1.26.19-1.88l.63-3.01c.32-1.45,1.03-2.94,2.14-4.47s2.43-2.7,3.96-3.5,3.07-1.2,4.61-1.2c1.22,0,2.31.21,3.27.62s1.79,1.04,2.5,1.87Z"/>
        <path class="cls-3" d="m408.24,154.29h-9.7l-3.15,5.4h2.83c.34,0,.57.05.69.15s.18.24.18.43c0,.25-.1.46-.3.63s-.49.26-.88.26h-5.5c-.33,0-.55-.05-.67-.16s-.18-.25-.18-.44c0-.23.1-.44.29-.62s.48-.26.87-.26h1.12l10.28-17.61h-4.36c-.33,0-.55-.05-.67-.15s-.18-.25-.18-.45c0-.23.1-.44.29-.62s.48-.26.87-.26h7.42l3.16,19.09h1.14c.33,0,.55.05.67.15s.18.24.18.43c0,.25-.1.46-.29.63s-.48.26-.87.26h-5.52c-.33,0-.55-.05-.67-.16s-.18-.25-.18-.44c0-.23.1-.44.29-.62s.48-.26.87-.26h2.83l-.88-5.4Zm-.25-1.48l-1.79-10.74h-.54l-6.26,10.74h8.6Z"/>
        <path class="cls-3" d="m435.92,142.61l.23-1.04c.07-.35.19-.6.36-.76s.37-.23.59-.23c.18,0,.32.05.43.16s.17.23.17.39c0,.09-.02.24-.07.44l-.88,4.1c-.07.36-.19.62-.36.77s-.37.23-.59.23c-.16,0-.3-.06-.41-.17s-.17-.24-.17-.38c0-.08.01-.2.04-.34s.04-.3.04-.45c0-.89-.43-1.68-1.3-2.37-1.12-.91-2.49-1.37-4.1-1.37-1.11,0-2.23.25-3.36.74-.86.38-1.56.83-2.11,1.37-1.02.98-1.86,2.03-2.53,3.13-.46.76-.8,1.65-1.02,2.67l-.54,2.58c-.12.55-.18,1.1-.18,1.63,0,1.86.61,3.42,1.83,4.67s2.74,1.87,4.55,1.87c1.23,0,2.41-.27,3.52-.81s2.28-1.38,3.49-2.51c.26-.25.5-.37.74-.37.19,0,.33.05.43.15s.15.23.15.38c0,.25-.13.5-.39.77-1.14,1.21-2.45,2.15-3.93,2.84s-2.92,1.03-4.3,1.03c-1.17,0-2.29-.24-3.34-.72-.79-.35-1.41-.77-1.86-1.25-.7-.74-1.29-1.61-1.75-2.63s-.69-2-.69-2.96c0-.63.06-1.26.19-1.88l.63-3.01c.32-1.45,1.03-2.94,2.14-4.47s2.43-2.7,3.96-3.5,3.07-1.2,4.61-1.2c1.22,0,2.31.21,3.27.62s1.79,1.04,2.5,1.87Z"/>
        <path class="cls-3" d="m454.22,142.07l-3.74,17.61h5.06c.33,0,.55.05.67.15s.18.24.18.43c0,.25-.1.46-.29.63s-.48.26-.87.26h-11.6c-.33,0-.55-.05-.67-.16s-.18-.25-.18-.44c0-.23.1-.44.29-.62s.48-.26.87-.26h5.06l3.74-17.61h-5.06c-.33,0-.55-.05-.67-.15s-.18-.25-.18-.45c0-.23.1-.44.29-.62s.48-.26.87-.26h11.58c.34,0,.57.05.69.15s.18.24.18.43c0,.25-.1.46-.3.63s-.49.26-.86.26h-5.06Z"/>
        <path class="cls-3" d="m480.61,154.29h-9.7l-3.15,5.4h2.83c.34,0,.57.05.69.15s.18.24.18.43c0,.25-.1.46-.3.63s-.49.26-.88.26h-5.5c-.33,0-.55-.05-.67-.16s-.18-.25-.18-.44c0-.23.1-.44.29-.62s.48-.26.87-.26h1.12l10.28-17.61h-4.36c-.33,0-.55-.05-.67-.15s-.18-.25-.18-.45c0-.23.1-.44.29-.62s.48-.26.87-.26h7.42l3.16,19.09h1.14c.33,0,.55.05.67.15s.18.24.18.43c0,.25-.1.46-.29.63s-.48.26-.87.26h-5.52c-.33,0-.55-.05-.67-.16s-.18-.25-.18-.44c0-.23.1-.44.29-.62s.48-.26.87-.26h2.83l-.88-5.4Zm-.25-1.48l-1.79-10.74h-.54l-6.26,10.74h8.6Z"/>
        <path class="cls-3" d="m526.01,161.16l-.76-1.74c-1.38,1.55-2.91,2.32-4.57,2.32-1.2,0-2.2-.42-3.01-1.26s-1.21-1.92-1.21-3.24c0-1.44.48-2.78,1.45-4.02s2.25-2.08,3.86-2.54c-.48-1.17-.77-1.94-.87-2.31s-.15-.71-.15-1.03c0-1.25.56-2.42,1.69-3.51s2.4-1.63,3.81-1.63c.4,0,.79.06,1.16.18s.73.3,1.07.54c.56-.26.9-.39,1.02-.39.18,0,.32.06.43.17s.17.25.17.41c0,.18-.05.34-.16.49s-.32.3-.63.44l-1.28.62c-.29-.33-.61-.57-.96-.73s-.72-.24-1.12-.24c-.94,0-1.79.37-2.56,1.12s-1.15,1.53-1.15,2.35c0,.67.29,1.7.88,3.09l2.71,6.49c1-1.36,1.89-2.92,2.67-4.68h1.44c.26,0,.43.02.52.06s.16.11.23.21.1.21.1.33c0,.15-.06.31-.17.47s-.25.28-.41.33c-.12.06-.42.09-.91.09-.95,1.95-1.92,3.48-2.9,4.61l.69,1.51h1.25c.33,0,.55.05.67.15s.18.24.18.43c0,.25-.1.46-.29.63s-.48.26-.87.26h-2Zm-3.87-9.18c-1.23.27-2.23.88-3.01,1.82s-1.16,2-1.16,3.17c0,.95.29,1.73.87,2.36s1.29.93,2.12.93c1.3,0,2.54-.74,3.73-2.21l-2.55-6.06Z"/>
        <path class="cls-3" d="m580.66,142.61l.23-1.04c.07-.35.19-.6.36-.76s.37-.23.59-.23c.18,0,.32.05.43.16s.17.23.17.39c0,.09-.02.24-.07.44l-.88,4.1c-.07.36-.19.62-.36.77s-.37.23-.59.23c-.16,0-.3-.06-.41-.17s-.17-.24-.17-.38c0-.08.01-.2.04-.34s.04-.3.04-.45c0-.89-.43-1.68-1.3-2.37-1.12-.91-2.49-1.37-4.1-1.37-1.11,0-2.23.25-3.36.74-.86.38-1.56.83-2.11,1.37-1.02.98-1.86,2.03-2.53,3.13-.46.76-.8,1.65-1.02,2.67l-.54,2.58c-.12.55-.18,1.1-.18,1.63,0,1.86.61,3.42,1.83,4.67s2.74,1.87,4.55,1.87c1.23,0,2.41-.27,3.52-.81s2.28-1.38,3.49-2.51c.26-.25.5-.37.74-.37.19,0,.33.05.43.15s.15.23.15.38c0,.25-.13.5-.39.77-1.14,1.21-2.45,2.15-3.93,2.84s-2.92,1.03-4.3,1.03c-1.17,0-2.29-.24-3.34-.72-.79-.35-1.41-.77-1.86-1.25-.7-.74-1.29-1.61-1.75-2.63s-.69-2-.69-2.96c0-.63.06-1.26.19-1.88l.63-3.01c.32-1.45,1.03-2.94,2.14-4.47s2.43-2.7,3.96-3.5,3.07-1.2,4.61-1.2c1.22,0,2.31.21,3.27.62s1.79,1.04,2.5,1.87Z"/>
        <path class="cls-3" d="m594.06,161.74c-2,0-3.67-.72-5-2.17s-2-3.4-2-5.86c0-1.93.39-3.78,1.16-5.54s1.75-3.24,2.92-4.45,2.39-2.11,3.66-2.71,2.55-.9,3.85-.9c2.37,0,4.12.83,5.27,2.49s1.72,3.47,1.72,5.44c0,2.36-.58,4.63-1.75,6.82s-2.65,3.88-4.46,5.08-3.6,1.79-5.37,1.79Zm.26-1.48c1.46,0,2.98-.52,4.54-1.57s2.83-2.53,3.8-4.45,1.45-3.85,1.45-5.81c0-2.09-.56-3.75-1.67-4.98s-2.46-1.85-4.03-1.85c-1.1,0-2.19.26-3.26.78s-2.1,1.3-3.09,2.35-1.82,2.33-2.49,3.86-1,3.1-1,4.7c0,2.17.56,3.87,1.68,5.12s2.48,1.86,4.07,1.86Z"/>
        <path class="cls-3" d="m625.53,161.16h-1.9l-6.96-18.4-3.6,16.93h2.72c.33,0,.55.05.67.15s.18.24.18.43c0,.25-.1.46-.29.63s-.48.26-.87.26h-5.45c-.33,0-.55-.05-.67-.16s-.18-.25-.18-.44c0-.23.1-.44.29-.62s.48-.26.87-.26h1.23l3.74-17.61h-1.97c-.33,0-.55-.05-.67-.15s-.18-.25-.18-.45c0-.23.1-.44.29-.62s.48-.26.87-.26h3.85l6.98,18.44,3.6-16.96h-2.72c-.33,0-.55-.05-.67-.15s-.18-.25-.18-.45c0-.23.1-.44.29-.62s.48-.26.87-.26h5.45c.33,0,.55.05.67.15s.18.24.18.43c0,.25-.1.46-.29.63s-.48.26-.87.26h-1.23l-4.06,19.09Z"/>
        <path class="cls-3" d="m651.74,142.07c.14-.66.27-1.05.39-1.18.2-.2.43-.3.69-.3.16,0,.3.05.41.16s.17.23.17.39c0,.09-.02.24-.07.44l-.79,3.76c-.08.35-.21.6-.38.76s-.37.23-.59.23c-.16,0-.3-.05-.41-.16s-.17-.23-.17-.39c0-.08.01-.2.04-.36s.04-.32.04-.48c0-.88-.4-1.66-1.2-2.33s-1.89-1.01-3.29-1.01c-1.85,0-3.37.51-4.54,1.54s-1.77,2.17-1.77,3.42c0,.93.35,1.63,1.05,2.11.7.49,1.94.89,3.71,1.2s2.96.58,3.59.83c.87.35,1.52.83,1.97,1.44s.67,1.37.67,2.27c0,1.22-.36,2.4-1.08,3.54s-1.81,2.06-3.28,2.76-2.98,1.05-4.55,1.05c-1.28,0-2.38-.2-3.32-.61s-1.71-1-2.3-1.8l-.18.84c-.07.35-.19.6-.37.76s-.38.23-.6.23c-.16,0-.3-.05-.41-.16s-.17-.23-.17-.39c0-.11.02-.25.05-.44l.88-4.08c.07-.36.19-.62.36-.77s.37-.23.59-.23c.18,0,.32.05.43.16s.17.23.17.37c0,.08-.01.21-.04.37s-.04.33-.04.49c0,1.01.46,1.89,1.37,2.65s2.22,1.13,3.92,1.13c1.28,0,2.49-.27,3.64-.82s2.01-1.25,2.58-2.11.85-1.72.85-2.58c0-.64-.17-1.2-.51-1.67s-.86-.84-1.56-1.12c-.46-.19-1.47-.42-3.04-.7-2.1-.36-3.6-.87-4.5-1.53-.91-.66-1.37-1.62-1.37-2.88,0-1.72.77-3.28,2.3-4.66s3.46-2.07,5.77-2.07c1.03,0,1.96.16,2.78.48s1.53.81,2.13,1.47Z"/>
        <path class="cls-3" d="m677.73,142.07l-2.62,12.34c-.45,2.1-1.51,3.84-3.21,5.24s-3.54,2.09-5.55,2.09c-1.66,0-3.03-.53-4.1-1.6s-1.6-2.46-1.6-4.18c0-.47.06-.98.18-1.55l2.62-12.34h-1.23c-.33,0-.55-.05-.67-.15s-.18-.24-.18-.43c0-.25.1-.46.29-.63s.48-.26.87-.26h5.45c.33,0,.55.05.67.15s.18.24.18.43c0,.25-.1.46-.3.63s-.49.26-.86.26h-2.72l-2.62,12.34c-.09.42-.14.85-.14,1.28,0,1.32.42,2.42,1.27,3.28s1.9,1.29,3.16,1.29c1,0,1.94-.22,2.84-.65s1.75-1.12,2.57-2.07,1.34-1.99,1.59-3.14l2.64-12.34h-2.72c-.33,0-.55-.05-.68-.15s-.18-.25-.18-.45c0-.23.1-.44.3-.62s.49-.26.88-.26h5.43c.34,0,.57.05.68.15s.17.24.17.43c0,.25-.1.46-.29.63s-.48.26-.87.26h-1.23Z"/>
        <path class="cls-3" d="m692.15,142.07l-3.74,17.61h9.81l1.25-5.87c.07-.35.19-.6.37-.76s.37-.23.58-.23c.18,0,.32.05.43.16s.17.23.17.39c0,.09-.02.24-.05.44l-1.56,7.35h-16.31c-.33,0-.55-.05-.67-.16s-.18-.25-.18-.44c0-.23.1-.44.29-.62s.48-.26.87-.26h3.52l3.74-17.61h-3.52c-.33,0-.55-.05-.67-.15s-.18-.25-.18-.45c0-.23.1-.44.29-.62s.48-.26.87-.26h8.53c.33,0,.55.05.67.15s.18.24.18.43c0,.25-.1.46-.29.63s-.48.26-.87.26h-3.52Z"/>
        <path class="cls-3" d="m719.56,142.07l-3.74,17.61h3.83c.33,0,.55.05.67.15s.18.24.18.43c0,.25-.1.46-.29.63s-.48.26-.87.26h-9.16c-.33,0-.55-.05-.67-.16s-.18-.25-.18-.44c0-.23.1-.44.29-.62s.48-.26.87-.26h3.83l3.74-17.61h-6.05l-1.09,5.12c-.07.36-.19.62-.36.77s-.37.23-.59.23c-.18,0-.32-.06-.43-.17s-.17-.24-.17-.38c0-.11.02-.26.07-.46l1.41-6.59h16.54l-1.41,6.59c-.07.36-.19.62-.37.77s-.38.23-.6.23c-.16,0-.3-.06-.41-.17s-.17-.24-.17-.38c0-.11.02-.26.07-.46l1.09-5.12h-6.05Z"/>
        <path class="cls-3" d="m738.8,161.74c-2,0-3.67-.72-5-2.17s-2-3.4-2-5.86c0-1.93.39-3.78,1.16-5.54s1.75-3.24,2.92-4.45,2.39-2.11,3.66-2.71,2.55-.9,3.85-.9c2.37,0,4.12.83,5.27,2.49s1.72,3.47,1.72,5.44c0,2.36-.58,4.63-1.75,6.82s-2.65,3.88-4.46,5.08-3.6,1.79-5.37,1.79Zm.26-1.48c1.46,0,2.98-.52,4.54-1.57s2.83-2.53,3.8-4.45,1.45-3.85,1.45-5.81c0-2.09-.56-3.75-1.67-4.98s-2.46-1.85-4.03-1.85c-1.1,0-2.19.26-3.26.78s-2.1,1.3-3.09,2.35-1.82,2.33-2.49,3.86-1,3.1-1,4.7c0,2.17.56,3.87,1.68,5.12s2.48,1.86,4.07,1.86Z"/>
        <path class="cls-3" d="m760.18,151.98l-1.63,7.7h2.72c.33,0,.55.05.67.15s.18.24.18.43c0,.25-.1.46-.29.63s-.48.26-.87.26h-6.19c-.33,0-.55-.05-.67-.16s-.18-.25-.18-.44c0-.23.1-.44.29-.62s.48-.26.87-.26h1.99l3.74-17.61h-1.99c-.33,0-.55-.05-.67-.15s-.18-.25-.18-.45c0-.23.1-.44.29-.62s.48-.26.87-.26h8.91c1.62,0,2.93.47,3.93,1.4s1.5,2.04,1.5,3.33c0,1.22-.49,2.39-1.47,3.52s-2.59,2.05-4.83,2.75c.89.71,1.61,1.52,2.16,2.42s1.35,2.79,2.41,5.67h1.14c.33,0,.55.05.67.15s.18.24.18.43c0,.25-.1.46-.29.63s-.48.26-.87.26h-1.99c-1.1-3.26-2.04-5.45-2.82-6.57s-1.75-1.99-2.93-2.61h-4.68Zm.32-1.48h4.01c1.36,0,2.66-.27,3.91-.81s2.16-1.18,2.72-1.93.85-1.45.85-2.11c0-.94-.4-1.77-1.2-2.5s-1.82-1.09-3.08-1.09h-5.43l-1.79,8.44Z"/>
        <path class="cls-3" d="m791.95,142.07l-3.74,17.61h5.06c.33,0,.55.05.67.15s.18.24.18.43c0,.25-.1.46-.29.63s-.48.26-.87.26h-11.6c-.33,0-.55-.05-.67-.16s-.18-.25-.18-.44c0-.23.1-.44.29-.62s.48-.26.87-.26h5.06l3.74-17.61h-5.06c-.33,0-.55-.05-.67-.15s-.18-.25-.18-.45c0-.23.1-.44.29-.62s.48-.26.87-.26h11.58c.34,0,.57.05.69.15s.18.24.18.43c0,.25-.1.46-.3.63s-.49.26-.86.26h-5.06Z"/>
        <path class="cls-3" d="m818.34,154.29h-9.7l-3.15,5.4h2.83c.34,0,.57.05.69.15s.18.24.18.43c0,.25-.1.46-.3.63s-.49.26-.88.26h-5.5c-.33,0-.55-.05-.67-.16s-.18-.25-.18-.44c0-.23.1-.44.29-.62s.48-.26.87-.26h1.12l10.28-17.61h-4.36c-.33,0-.55-.05-.67-.15s-.18-.25-.18-.45c0-.23.1-.44.29-.62s.48-.26.87-.26h7.42l3.16,19.09h1.14c.33,0,.55.05.67.15s.18.24.18.43c0,.25-.1.46-.29.63s-.48.26-.87.26h-5.52c-.33,0-.55-.05-.67-.16s-.18-.25-.18-.44c0-.23.1-.44.29-.62s.48-.26.87-.26h2.83l-.88-5.4Zm-.25-1.48l-1.79-10.74h-.54l-6.26,10.74h8.6Z"/>
      </g>
    </g>
  </g>
</svg>